<svg width="14" height="14" viewBox="0 0 14 14" fill="none" xmlns="http://www.w3.org/2000/svg">
<path fillRule="evenodd" clipRule="evenodd" d="M7.72925 4.171C7.72925 3.88105 7.92512 3.646 8.16675 3.646H9.91675C10.1584 3.646 10.3542 3.88105 10.3542 4.171C10.3542 4.46095 10.1584 4.696 9.91675 4.696H8.16675C7.92512 4.696 7.72925 4.46095 7.72925 4.171Z" fill="white"/>
<path fillRule="evenodd" clipRule="evenodd" d="M3.64648 7.08701C3.64648 6.79706 3.84236 6.56201 4.08398 6.56201H9.91732C10.1589 6.56201 10.3548 6.79706 10.3548 7.08701C10.3548 7.37696 10.1589 7.61201 9.91732 7.61201H4.08398C3.84236 7.61201 3.64648 7.37696 3.64648 7.08701Z" fill="white"/>
<path fillRule="evenodd" clipRule="evenodd" d="M13.974 8.31268C13.9919 7.90363 14 7.46666 14 7C14 1.2355 12.7645 0 7 0C1.2355 0 0 1.2355 0 7C0 12.7645 1.2355 14 7 14C7.46666 14 7.90363 13.9919 8.31268 13.974C8.46215 13.9674 8.6079 13.9595 8.75 13.9503C8.89939 13.9405 9.04475 13.9292 9.18618 13.9163C12.4456 13.6181 13.6181 12.4456 13.9163 9.18618C13.9292 9.04475 13.9405 8.89939 13.9503 8.75C13.9595 8.6079 13.9674 8.46215 13.974 8.31268ZM13.0989 8.2949C13.1168 7.89587 13.125 7.46519 13.125 7C13.125 5.57885 13.0477 4.49655 12.8627 3.66418C12.6799 2.84175 12.4039 2.31793 12.043 1.95703C11.6821 1.59613 11.1582 1.32006 10.3358 1.13728C9.50345 0.952291 8.42115 0.875 7 0.875C5.57885 0.875 4.49655 0.952291 3.66418 1.13728C2.84175 1.32006 2.31793 1.59613 1.95703 1.95703C1.59613 2.31793 1.32006 2.84175 1.13728 3.66418C0.952291 4.49655 0.875 5.57885 0.875 7C0.875 8.42115 0.952291 9.50345 1.13728 10.3358C1.32006 11.1582 1.59613 11.6821 1.95703 12.043C2.31793 12.4039 2.84175 12.6799 3.66418 12.8627C4.49655 13.0477 5.57885 13.125 7 13.125C7.46519 13.125 7.89587 13.1168 8.2949 13.0989C8.3031 12.8957 8.32044 12.6669 8.35274 12.4229C8.46755 11.5558 8.77952 10.4351 9.60731 9.60731C10.4351 8.77952 11.5558 8.46755 12.4229 8.35274C12.6669 8.32043 12.8957 8.3031 13.0989 8.2949ZM9.17372 13.0386C9.18215 12.884 9.19668 12.7152 9.22017 12.5378C9.32411 11.7527 9.59548 10.8566 10.226 10.226C10.8566 9.59548 11.7527 9.32411 12.5378 9.22017C12.7152 9.19668 12.884 9.18215 13.0386 9.17372C12.8923 10.6891 12.5572 11.5288 12.043 12.043C11.5288 12.5572 10.6891 12.8923 9.17372 13.0386Z" fill="white"/>
</svg>
