<svg width="90" height="90" viewBox="0 0 90 90" fill="none" xmlns="http://www.w3.org/2000/svg">
<circle cx="45" cy="45" r="43" fill="white" stroke="#275D71" strokeWidth="4"/>
<circle cx="45" cy="45" r="40.5" fill="#275D71" stroke="white" strokeWidth="3"/>
<path d="M30.2385 33.4101C28.5482 32.7939 27.676 30.9256 28.2921 29.2372C28.9082 27.5469 30.7766 26.6747 32.4649 27.2889C28.9362 26.0046 25.0315 27.825 23.7472 31.3557C22.4629 34.8844 24.2813 38.7891 27.812 40.0734L61.2386 52.2398L32.4649 62.7099C28.9362 63.9941 25.0315 62.1758 23.7472 58.6451C22.4629 55.1144 24.2813 51.2116 27.812 49.9273C22.4409 51.8797 19.6724 57.8189 21.6268 63.188C23.5792 68.559 29.5183 71.3276 34.8874 69.3732L66.2796 57.9489C69.4322 56.7987 71.0586 53.314 69.9123 50.1594C69.2722 48.403 67.9079 47.1208 66.2796 46.5267L30.2385 33.4101Z" fill="#0A8576"/>
<path d="M61.2392 37.7611L32.4675 27.2891C28.9368 26.0048 25.032 27.8252 23.7478 31.3559C22.4635 34.8846 24.2839 38.7893 27.8126 40.0736C22.4435 38.1212 19.675 32.182 21.6273 26.813C23.5837 21.4419 29.5189 18.6734 34.892 20.6257L66.2842 32.052C69.4368 33.2002 71.0631 36.6869 69.9169 39.8415C69.2768 41.5979 67.9125 42.8801 66.2842 43.4743L30.2391 56.5929C28.5507 57.207 27.6805 59.0754 28.2927 60.7657C28.9088 62.456 30.7772 63.3282 32.4695 62.7121C28.9388 63.9963 25.034 62.178 23.7498 58.6473C22.4655 55.1166 24.2859 51.2138 27.8146 49.9295L61.2392 37.7611Z" fill="#31B190"/>
</svg>
